mtllib materials.mtl
v -0.03589708 0.07186031 0.1058747
v -0.1258971 -0.04813969 -0.07412535
v -0.1258971 0.1418604 -0.07412535
v 0.04410291 0.07186031 0.1058747
v 0.07410288 0.2418604 0.005874693
v 0.04410291 0.07186031 0.02587467
v -0.01589711 0.3218603 0.1658747
v 0.09410287 0.3018603 0.1458747
v -0.005897097 0.3618605 -0.1641253
v -0.1358971 0.4918606 -0.1641253
v -0.1658971 0.4518607 -0.07412535
v -0.0658971 0.4418607 -0.09412533
v -0.0658971 0.4418607 -0.1241253
v 0.0841029 0.3318605 -0.1541254
v 0.2741029 -0.2681396 0.2058747
v 0.3041029 -0.2481396 0.2058747
v -0.1958971 -0.0181396 -0.1241253
v -0.0958971 0.03186035 -0.06412536
v -0.1258971 0.03186035 -0.06412536
v -0.1958971 0.04186034 -0.07412535
v -0.1858971 0.01186037 -0.07412535
v -0.1958971 -0.04813957 -0.1241253
v -0.1558971 0.00186038 -0.1441253
v -0.3558971 -0.1381396 -0.2741253
v -0.1158971 -0.09813952 0.0658747
v -0.1158971 -0.09813952 0.03587472
v -0.1158971 -0.06813955 0.03587472
v -0.1158971 -0.06813955 0.0658747
v -0.0858971 -0.09813952 0.0658747
v -0.0858971 -0.06813955 0.0658747
v -0.0858971 -0.06813955 0.03587472
v -0.0858971 -0.09813952 0.03587472
v 0.004102901 -0.03813958 0.07587469
v -0.0358971 -0.03813958 0.07587469
v -0.03589711 -0.00813961 0.07587469
v 0.004102893 -0.00813961 0.07587469
v 0.1141029 0.00186038 -0.05412531
v 0.124103 0.06186032 0.02587467
v -0.02589711 0.02186036 0.0658747
v -0.0358971 -0.03813958 -0.01412529
v 0.1816413 -0.09244716 0.1358747
v 0.2241029 0.05186045 0.1358748
v 0.3041029 0.04186046 0.1458749
v 0.1741028 0.08186042 -0.06412524
v 0.1041028 0.08186042 -0.0641253
v 0.1816413 -0.09244716 -0.03412533
v 0.3816414 -0.2024472 0.02587473
v 0.244103 0.001860499 0.03587466
v -0.1187547 0.1566849 0.01142675
v 0.1225195 -0.2987281 -0.2627609
v 0.2003804 0.1663135 0.06268865
v -0.4297237 0.05566919 -0.03341252
v -0.1197235 0.1356692 0.09658772
v -0.1721736 0.05470943 0.3692159
v -0.2674814 -0.1387281 -0.06276029
v -0.1496204 0.2763135 0.1726897
v 0.2341029 -0.2481395 -0.1241252
v -0.09153304 0.04901111 0.1902985
v 0.2906655 -0.04746425 -0.2006879
v 0.294103 -0.2681395 -0.2741253
v 0.2641029 -0.1381396 -0.2341253
v 0.02846698 -0.1809889 -0.2497017
v 0.0550296 -0.02031362 -0.3462644
v 0.08066539 0.1525357 0.2393124
vn -0.8944272 -6.640318E-08 0.4472136
vn 0.9847836 -0.1737851 5.462515E-10
vn 1.748456E-07 -1 5.358806E-15
vn 0.09219185 0.9103946 -0.403339
vn -6.243486E-08 -0.2333731 0.9723873
vn 0.5070203 9.918779E-08 -0.8619342
vn -0.899001 -0.03289044 0.4367098
vn 0.9776853 -0.2034108 -0.05249325
vn 0.3762884 -0.8466488 0.3762883
vn -0.2022153 0.8257118 -0.5266015
vn 0.1401373 -0.1991429 0.9698988
vn 0.4420632 -0.1813591 -0.8784584
vn -0.6195859 -0.6195853 -0.4818998
vn 0.5913638 0.8064049 -1.457079E-07
vn 0.2652649 -0.3978983 -0.8782434
vn 0.09950294 0.9950373 -3.595308E-06
vn -0.1992693 0.2989046 0.9332458
vn 0.5886479 0.8081433 -0.01995341
vn -0.6219675 -0.5832669 -0.5224521
vn 0.6289067 0.5680442 0.5308505
vn 0.2180915 0.4666144 0.8571506
vn 0.1622202 0.1622201 -0.9733289
vn -0.09103907 -0.5498732 -0.8302718
vn 0.3180297 0.8224889 0.4715603
vn 1.138371E-07 0.7682213 -0.6401844
vn -0.8244743 -0.2748252 0.4946851
vn 0.4472131 -1.377227E-07 0.8944275
vn 6.691957E-08 -0.4472137 0.8944271
vn -0.1918733 0.8008626 -0.5672777
vn 0.9805807 -2.257525E-07 -0.1961162
vn 0.1857747 0.8950967 -0.4053268
vn 0.137018 -0.8612565 0.4893501
vn -0.4794563 -0.4261836 0.7671304
vn 0.6738245 -0.6665794 -0.3187986
vn -0.1481593 -0.04938644 0.9877297
vn 0.4964226 -0.8574583 0.1353882
vn -1 -1.748456E-07 -8.742275E-08
vn 1 1.748456E-07 8.742275E-08
vn 1.748455E-07 -1 1.748456E-07
vn -1.748455E-07 1 -1.748456E-07
vn -8.742278E-08 1.748456E-07 1
vn 8.742278E-08 -1.748456E-07 -1
vn -1.192093E-07 -1.748456E-07 1
vn -0.3479131 0.77038 -0.5342951
vn 1.748456E-07 -1 -1.748456E-07
vn -1.61462E-07 0.3162278 0.9486834
vn 0.7633862 1.116433E-08 0.6459423
vn -1 -1.748456E-07 -1.192093E-07
vn 0.2306884 -0.9676109 -0.1025284
vn 0.1258323 0.4246841 0.8965544
vn 0.5821713 -0.6837141 0.4400133
vn -0.9534625 0.2860389 -0.09534636
vn -0.1196252 0.03519846 0.992195
vn 8.481343E-07 -0.1696152 -0.9855103
vn -0.4819188 -0.8762159 -1.968194E-08
vn 5.150172E-08 0.9889364 0.1483403
vn 0.6811881 0.485396 -0.5480634
vn -0.9593329 0.282277 -4.140441E-08
vn 0.3017825 -0.3414418 0.8901376
vn 0.7897151 -0.07072666 -0.6093832
vn 0.854302 0.1134641 -0.5072415
vn -0.8384171 -0.2939685 0.4589548
vn 0.4343877 0.3333821 -0.8367578
vn 0.108223 0.9867409 0.1209553
vn 0.1153738 0.5565007 -0.8227976
vn -0.3262309 0.9214686 0.2108772
vn 0.07301254 0.2081839 -0.9753608
vn -0.9725736 -0.09089165 -0.2141013
vn -0.3300852 0.9173248 0.2226182
vn -0.1445392 -0.8908027 0.4307888
vn -0.2986283 0.3711497 -0.8792436
vn 0.4046704 0.5833526 0.7042313
vn -0.9823147 -0.1788792 -0.05531822
vn 0.6318721 -0.5126279 0.581335
vn -0.6633168 -0.6174324 0.4228333
vn 0.06971537 0.8075255 -0.5856982
vn 0.7211726 0.06003833 0.6901489
vn 0.009305378 0.2960342 -0.955132
vn -0.3115616 -0.9502237 0.002071604
vn 0.5320971 0.1513223 -0.8330511
vn 0.9281339 0.1042293 0.3573567
vn -0.9646254 0.001038668 -0.2636225
vn -0.4605676 -0.8319935 0.3092963
vn 0.2805245 0.9171754 -0.283011
vn 0.9609736 -0.2762759 -0.01419176
vn 0.1511767 -0.5274341 -0.8360376
vn 0.3285249 -0.7908939 0.5162929
vn -0.4510004 0.8611786 -0.2344567
vt -0.03094923 0.2040151
vt -0.01442234 0.187406
vt -0.00971806 0.2058144
vt 0.1669501 0.1251644
vt 0.1662932 0.1451035
vt 0.1598994 0.1289444
vt 0.08421864 -0.0258306
vt 0.08690934 -0.01829667
vt 0.0793754 -0.01560598
vt -0.1704172 -0.03118666
vt -0.1538832 -0.01988944
vt -0.1692455 -0.01988945
vt 0.1889252 0.08042018
vt 0.2120255 0.09188221
vt 0.1859359 0.08784069
vt -0.1250124 0.1304921
vt -0.1230103 0.1534919
vt -0.1403265 0.1417384
vt -0.01116252 0.206863
vt -0.03242726 0.2307127
vt -0.03238151 0.2049251
vt 0.1559663 0.136631
vt 0.1692456 0.1564719
vt 0.1538833 0.1564719
vt 0.156248 0.04788324
vt 0.1403648 0.03112847
vt 0.162599 0.03852028
vt -0.1957229 0.02660236
vt -0.1654935 0.0162494
vt -0.1782074 0.03630828
vt 0.2136632 0.0838143
vt 0.2073706 0.09326964
vt 0.1875439 0.07996913
vt -0.1020336 0.1494884
vt -0.1139696 0.162119
vt -0.1202707 0.1392215
vt -0.1470524 -0.03745274
vt -0.1639479 -0.04470144
vt -0.1592483 -0.0538619
vt 0.02074028 -0.1483181
vt 0.02319879 -0.1465989
vt 0.01499758 -0.129636
vt -0.04492815 0.1177521
vt -0.04476906 0.1213541
vt -0.12171 0.1328035
vt -0.05429985 -0.05434019
vt -0.05317446 -0.04317177
vt -0.05598084 -0.04423206
vt 0.06792785 0.1155865
vt 0.151449 0.1265963
vt 0.06793149 0.1191921
vt 0.007784121 -0.1315349
vt 0.01548099 -0.1487325
vt 0.02354535 -0.1537291
vt -0.1681446 -0.04254305
vt -0.07926665 -0.04471365
vt -0.1553781 -0.02657384
vt 0.1514269 -0.01945307
vt 0.08299838 -0.04093651
vt 0.1663712 -0.03204947
vt 0.0772683 0.04646249
vt 0.1661562 0.04817974
vt 0.1608567 0.05694988
vt -0.216841 0.1002256
vt -0.1996098 0.1066355
vt -0.1931767 0.1136792
vt -0.05433073 0.0598096
vt -0.1240212 0.07675785
vt -0.1313583 0.07066136
vt 0.08897565 -0.04081891
vt 0.09549666 -0.03285172
vt 0.0864897 -0.02987268
vt -0.1661828 -0.004413432
vt -0.1735281 0.005932898
vt -0.1736652 0.002936029
vt 0.1039059 0.1707904
vt 0.1012749 0.1690361
vt 0.09999378 0.161267
vt 0.1804842 0.04650421
vt 0.1778832 0.0403208
vt 0.1805937 0.04160646
vt 0.1917846 0.04993447
vt 0.1909557 0.05281768
vt 0.1912934 0.04355022
vt -0.1572168 0.01346717
vt -0.1652321 0.009373726
vt -0.1384713 -0.006870103
vt 0.1119687 0.1548936
vt 0.1110852 0.1520267
vt 0.1177251 0.1562588
vt -0.1270449 -0.05169693
vt -0.1359052 -0.04982731
vt -0.1344459 -0.05681805
vt 0.1518661 -0.002681987
vt 0.1542566 0.006278239
vt 0.1459874 -0.003345707
vt 0.181665 0.05139087
vt 0.1749697 0.02864943
vt 0.1911193 0.05546716
vt 0.04226657 0.1182853
vt 0.02387694 0.09762559
vt 0.04301309 0.1116187
vt 0.1672505 0.08425777
vt 0.1703767 0.08473422
vt 0.1662858 0.09058779
vt 0.1154367 0.0558907
vt 0.1064902 0.05449077
vt 0.1070286 0.04962147
vt -0.1689079 0.09195184
vt -0.1664667 0.09369556
vt -0.1682104 0.09613676
vt -0.1706516 0.09439304
vt 0.1689079 0.09195184
vt 0.1706516 0.09439304
vt 0.1682104 0.09613676
vt 0.1664667 0.09369556
vt 0.07776101 -0.0320192
vt 0.07877003 -0.02919397
vt 0.0759448 -0.02818497
vt 0.07493579 -0.03101019
vt -0.07776101 -0.0320192
vt -0.07493579 -0.03101019
vt -0.0759448 -0.02818497
vt -0.07877003 -0.02919397
vt 0.1565247 0.07379025
vt 0.159208 0.07513189
vt 0.1578664 0.07781518
vt 0.1551831 0.07647353
vt -0.1565247 0.07379025
vt -0.1551831 0.07647353
vt -0.1578664 0.07781518
vt -0.159208 0.07513189
vt 0.1565248 0.08720666
vt 0.1583136 0.08362895
vt 0.1609969 0.08497059
vt 0.159208 0.0885483
vt -0.1638638 0.05464303
vt -0.1738645 0.0556357
vt -0.1747533 0.03962912
vt -0.1647526 0.03863647
vt 0.08273873 -0.02105462
vt 0.07291771 -0.02179456
vt 0.08139338 -0.02482159
vt 0.1216548 0.08072305
vt 0.1236804 0.07727388
vt 0.1259008 0.07973757
vt 0.1857696 0.0331236
vt 0.1884045 0.03455784
vt 0.1811414 0.04999309
vt -0.173209 0.09625299
vt -0.1658854 0.1014841
vt -0.1749527 0.09869419
vt 0.07942512 0.0244093
vt 0.07093504 0.0397037
vt 0.06959984 0.02372817
vt 0.1199674 0.0551509
vt 0.1167412 0.07085413
vt 0.1157187 0.05612475
vt 0.1716647 0.06448387
vt 0.1716234 0.07924865
vt 0.1616211 0.07827246
vt -0.1547461 0.1107942
vt -0.1647118 0.1120926
vt -0.1640309 0.1088466
vt 0.1322939 0.1134044
vt 0.1429676 0.1240039
vt 0.1382383 0.1306096
vt -0.142059 0.1071779
vt -0.145448 0.101053
vt -0.1262181 0.09927423
vt 0.05098753 -0.07255141
vt 0.03457148 -0.08950765
vt 0.04939014 -0.09783874
vt -0.06889808 0.003180327
vt -0.04558562 9.327843E-05
vt -0.04833648 0.006530107
vt -0.1605261 0.06904206
vt -0.1888234 0.06954136
vt -0.1825533 0.0579791
vt -0.1561527 0.1187306
vt -0.1407598 0.1259457
vt -0.162537 0.1323511
vt 0.1895417 0.08988925
vt 0.1612404 0.08973752
vt 0.1809649 0.07383332
vt -0.02107685 0.1856069
vt -0.01768266 0.198469
vt -0.0322513 0.1993376
vt -0.001959553 0.2117167
vt -0.02561679 0.203572
vt -0.01108298 0.2022423
vt 0.0639326 0.1751687
vt 0.08125228 0.1837116
vt 0.06243794 0.1978191
vt -0.1412304 0.1221691
vt -0.1653313 0.1169988
vt -0.1582015 0.1057685
vt -0.04461086 -0.01588868
vt -0.06940009 -0.01249835
vt -0.0651425 -0.01941738
vt -0.2052282 0.03756985
vt -0.1480394 0.04929012
vt -0.2015733 0.06969957
vt -0.04025323 0.01746408
vt -0.06312929 0.04336172
vt -0.08706182 0.0271275
vt -0.1940671 0.081574
vt -0.1964437 0.04865719
vt -0.1719905 0.05585345
vt -0.2235082 0.04807843
vt -0.2172908 0.01903123
vt -0.20735 0.04618812
vt -0.0531757 0.04863967
vt -0.06118746 0.04506736
vt -0.03829973 0.01918004
vt 0.1122188 -0.009949759
vt 0.1325181 -0.05196105
vt 0.1806197 -0.04780326
vt -0.1811422 0.03348885
vt -0.1481427 0.06647427
vt -0.2057184 0.05683263
vt 0.1350425 -0.01740835
vt 0.1122449 0.01336953
vt 0.1119948 -0.03614862
vt -0.2027846 0.05650454
vt -0.2223396 0.05100043
vt -0.2062715 0.04845525
vt 0.2132511 0.04282833
vt 0.1956898 0.08912855
vt 0.1408894 0.07241477
vt 0.198191 -0.07450803
vt 0.1511959 -0.08557633
vt 0.1638202 -0.1077206
vt -0.1847452 0.02059307
vt -0.2002718 -0.01442027
vt -0.1801797 -0.01141995
vt 0.1490253 0.04536805
vt 0.1957833 0.01806093
vt 0.1628452 0.06275561
vt -0.1404987 0.09199785
vt -0.15429 0.09394725
vt -0.1582704 0.070279
vt 0.05155706 -0.04473077
vt 0.04044875 -0.03283095
vt 0.03125875 -0.05934672
vt -0.126684 0.1424411
vt -0.1426909 0.1196745
vt -0.1206812 0.1344147
vt 0.155633 0.03521982
vt 0.1593167 0.0506286
vt 0.1456271 0.04806048
vt -0.2043203 0.04723395
vt -0.1575714 0.06781404
vt -0.1636063 0.08575965
vt 0.08958577 -0.07862627
vt 0.1338256 -0.1041573
vt 0.1045663 -0.05859547
vt -0.1024073 -0.03296132
vt -0.1438131 -0.06555827
vt -0.08386278 -0.05371323
vt 0.1255526 0.1190293
vt 0.1272435 0.1411756
vt 0.1202783 0.1339685
vt -0.06815825 0.1063471
vt -0.09288507 0.09684535
vt -0.07840715 0.08464475
vt 0.1840608 0.02871781
vt 0.194231 0.04672576
vt 0.1469653 0.07002713
vt -0.1028099 0.06770906
vt -0.1633553 0.05942615
vt -0.1525202 0.0418102
o group730586050
g mesh730586050
usemtl mat8
f 3/3/1 2/2/1 1/1/1
f 6/6/2 5/5/2 4/4/2
f 6/9/3 4/8/3 1/7/3
f 8/12/4 5/11/4 7/10/4
f 4/15/5 7/14/5 1/13/5
f 3/18/6 6/17/6 2/16/6
f 1/21/7 7/20/7 3/19/7
f 5/24/8 8/23/8 4/22/8
f 1/27/9 2/26/9 6/25/9
f 5/30/10 3/29/10 7/28/10
f 4/33/11 8/32/11 7/31/11
f 3/36/12 5/35/12 6/34/12
o group1730805740
g mesh1730805740
usemtl mat8
f 11/39/13 10/38/13 9/37/13
f 14/42/14 13/41/14 12/40/14
f 9/45/15 16/44/15 15/43/15
f 12/48/16 13/47/16 11/46/16
f 16/51/17 12/50/17 15/49/17
f 10/54/18 13/53/18 14/52/18
f 9/57/19 15/56/19 11/55/19
f 12/60/20 16/59/20 14/58/20
f 12/63/21 11/62/21 15/61/21
f 14/66/22 9/65/22 10/64/22
f 9/69/23 14/68/23 16/67/23
f 13/72/24 10/71/24 11/70/24
o group29965065
g mesh29965065
usemtl mat8
f 19/75/25 18/74/25 17/73/25
f 22/78/26 21/77/26 20/76/26
f 17/81/27 22/80/27 23/79/27
f 21/84/28 18/83/28 19/82/28
f 24/87/29 20/86/29 23/85/29
f 21/90/30 22/89/30 17/88/30
f 20/93/31 19/92/31 23/91/31
f 17/96/32 18/95/32 21/94/32
f 20/99/33 24/98/33 22/97/33
f 22/102/34 24/101/34 23/100/34
f 19/105/35 20/104/35 21/103/35
f 17/108/36 23/107/36 19/106/36
o group640469611
g mesh640469611
usemtl mat21
f 28/112/37 27/111/37 26/110/37 25/109/37
f 32/116/38 31/115/38 30/114/38 29/113/38
f 26/120/39 32/119/39 29/118/39 25/117/39
f 30/124/40 31/123/40 27/122/40 28/121/40
f 29/128/41 30/127/41 28/126/41 25/125/41
f 27/132/42 31/131/42 32/130/42 26/129/42
o group1207785361
g mesh1207785361
usemtl mat21
f 36/136/43 35/135/43 34/134/43 33/133/43
f 40/140/44 39/139/44 38/138/44 37/137/44
f 34/143/45 40/142/45 33/141/45
f 39/146/46 35/145/46 36/144/46
f 37/149/47 36/148/47 33/147/47
f 35/152/48 40/151/48 34/150/48
f 40/155/49 37/154/49 33/153/49
f 36/158/50 38/157/50 39/156/50
f 37/161/51 38/160/51 36/159/51
f 35/164/52 39/163/52 40/162/52
o group1595497496
g mesh1595497496
usemtl mat8
f 43/167/53 42/166/53 41/165/53
f 46/170/54 45/169/54 44/168/54
f 41/173/55 46/172/55 47/171/55
f 44/176/56 45/175/56 42/174/56
f 48/179/57 43/178/57 47/177/57
f 42/182/58 46/181/58 41/180/58
f 41/185/59 47/184/59 43/183/59
f 44/188/60 48/187/60 46/186/60
f 48/191/61 44/190/61 43/189/61
f 42/194/62 45/193/62 46/192/62
f 46/197/63 48/196/63 47/195/63
f 42/200/64 43/199/64 44/198/64
o group76059794
g mesh76059794
usemtl mat8
f 51/203/65 50/202/65 49/201/65
f 54/206/66 53/205/66 52/204/66
f 55/209/67 52/208/67 49/207/67
f 53/212/68 54/211/68 56/210/68
f 52/215/69 53/214/69 49/213/69
f 54/218/70 55/217/70 50/216/70
f 49/221/71 50/220/71 55/219/71
f 54/224/72 51/223/72 56/222/72
f 53/227/73 56/226/73 49/225/73
f 50/230/74 51/229/74 54/228/74
f 52/233/75 55/232/75 54/231/75
f 49/236/76 56/235/76 51/234/76
o group805477502
g mesh805477502
usemtl mat8
f 59/239/77 58/238/77 57/237/77
f 62/242/78 61/241/78 60/240/78
f 62/245/79 60/244/79 57/243/79
f 61/248/80 63/247/80 59/246/80
f 60/251/81 61/250/81 57/249/81
f 63/254/82 62/253/82 58/252/82
f 57/257/83 58/256/83 62/255/83
f 63/260/84 64/259/84 59/258/84
f 61/263/85 59/262/85 57/261/85
f 62/266/86 63/265/86 61/264/86
f 59/269/87 64/268/87 58/267/87
f 58/272/88 64/271/88 63/270/88
