mtllib materials.mtl
v 0.08446619 -0.008048654 -0.05725133
v -0.01679122 0.2038327 -0.2761372
v -0.04333442 0.2102065 -0.2550871
v -0.05149108 -0.005880237 0.01808518
v -0.07695222 0.25279 -0.2889718
v 0.05195528 0.005869389 -0.008482277
v 0.03994721 -0.03442216 -0.04414028
v -0.1346679 0.2578684 -0.2746689
v 0.06965077 -0.125304 -0.02080947
v 0.03859028 -0.04917514 -0.01414472
v 0.02013645 -0.04216158 -0.03673381
v 0.002587527 -0.05131555 -0.01028478
v 0.001592934 -0.02866578 -0.0173946
v 0.02004677 -0.03567946 0.005194426
v -0.04095924 -0.3366095 -0.05556279
v -0.1080225 -0.2626212 -0.04503822
v -0.3523611 -0.0423454 0.3216769
v 0.07521698 -0.03775752 0.01970106
v 0.05679768 -0.05169654 0.0005586147
v -0.3845174 -0.03413832 0.3212098
v 0.04306069 -0.02955043 0.01923388
v 0.03387094 -0.03513157 0.01055712
v 0.3536003 0.356721 0.04981613
v 0.1302083 0.003714204 0.01438636
v 0.1075086 0.001151681 0.03383255
v 0.3309005 0.3541585 0.06926233
v 0.266769 0.2210314 -0.03353077
v 0.0888876 0.01331234 0.01369852
v 0.04427361 -0.1352769 -0.07024288
v 0.3433607 0.3583527 0.05572832
vn -0.5298125 -0.7185794 -0.4504914
vn 0.07704663 0.7656589 0.638616
vn 0.540509 -0.6421584 0.5435831
vn -0.5153391 -0.7445296 -0.4243836
vn -0.5579169 -0.6426933 -0.5250467
vn 0.7107764 0.6403708 0.2910709
vn 0.219547 0.7550282 0.6178443
vn -0.2634646 -0.7527369 -0.6033022
vn 0.5177472 0.7460232 0.4187928
vn 0.2535882 -0.6823558 0.6856264
vn -0.2276211 -0.709982 -0.666419
vn 0.1391425 -0.6191012 -0.7728862
vn 0.7739381 0.3612966 -0.5200813
vn -0.735684 0.1732377 0.6547959
vn 0.7821451 0.2699503 0.5615835
vn -0.6436666 0.1811047 -0.7435688
vn -0.01535389 -0.1544395 0.987883
vn 0.4894367 0.861958 -0.1322126
vn 0.3031689 -0.001968027 -0.9529349
vn -0.6306248 0.2070917 0.7479475
vn -0.3482158 -0.4338293 0.8309861
vn -0.01737908 0.1253503 -0.9919603
vn 0.2762449 -0.8837521 0.3777181
vn 0.2282299 0.9134101 0.3370359
vn -0.580334 -0.3632751 -0.7288647
vn 0.1932633 0.7192465 -0.6673335
vn -0.2427017 0.9123239 -0.3297893
vn -0.2310516 -0.9228268 -0.3082304
vn 0.6094497 -0.4511114 0.6519736
vn -0.711004 0.495403 -0.4990484
vn 0.8436698 -0.5363193 0.02414135
vn -0.5999826 0.3054748 0.7393958
vn 0.4593346 0.6360837 0.6200075
vn -0.2054271 -0.9101602 -0.3597333
vn 0.849117 -0.5275787 -0.02571155
vn -0.6875899 0.5629682 -0.4585706
vn -0.308751 0.6334154 -0.7095476
vn -0.1215585 -0.4602968 0.8794034
vn -0.7619113 0.5935086 -0.2593042
vt -0.1449136 0.01587683
vt -0.1757284 0.02487844
vt -0.1765234 0.02152425
vt 0.1399273 0.01583192
vt 0.1756201 0.03439111
vt 0.1369571 0.02615803
vt 0.03742011 0.03977483
vt 0.04267865 0.04142972
vt 0.0378952 0.04509162
vt -0.1751207 0.01566644
vt -0.1744294 0.01904355
vt -0.1815173 0.0156419
vt -0.1470475 0.02484301
vt -0.1781486 0.03690521
vt -0.1515859 0.0143607
vt 0.1471186 0.0173332
vt 0.1479316 0.01136413
vt 0.1770868 0.02884323
vt 0.143794 0.01069462
vt 0.1816336 0.02448008
vt 0.1791419 0.02990283
vt -0.1734732 0.02865005
vt -0.1823835 0.02312051
vt -0.1446246 0.009115714
vt 0.1432668 0.004523274
vt 0.1814016 0.01493235
vt 0.1743213 0.01834959
vt 0.05143172 -0.003879905
vt 0.05867808 -0.01270976
vt 0.05666763 -0.002154739
vt -0.1815658 0.03485943
vt -0.1841627 0.02948629
vt -0.1751692 0.03487943
vt -0.1722421 0.05036489
vt -0.140351 0.04058065
vt -0.1404412 0.04591786
vt -0.1326692 -0.027986
vt -0.1407488 -0.02632189
vt -0.1424427 -0.0287979
vt 0.1302254 0.07181781
vt 0.1319213 0.07348203
vt 0.1290562 0.07437165
vt 0.1203917 0.06838305
vt 0.1308511 0.06686849
vt 0.1286258 0.06888045
vt -0.07396924 0.04261604
vt -0.09834152 0.06033212
vt -0.1008513 0.05868856
vt 0.1200452 0.006394776
vt 0.1049284 -0.01237774
vt 0.1144741 -0.01549293
vt 0.1295909 0.003279592
vt 0.07798459 -0.08112644
vt 0.07694893 -0.083942
vt 0.07976448 -0.08497767
vt 0.08080016 -0.08216211
vt -0.14469 0.01334658
vt -0.122631 -0.007178217
vt -0.1348856 0.01357626
vt 0.1382654 0.05665828
vt 0.1333181 0.03306911
vt 0.1401168 0.05814751
vt 0.1035818 -0.0432122
vt 0.112681 -0.04745843
vt 0.1140015 -0.04497944
vt -0.1325789 0.007895931
vt -0.1155642 -0.01174194
vt -0.1060023 -0.008676672
vt 0.0242073 -0.04767416
vt 0.00197907 -0.0002796329
vt -0.0005361165 -0.001914821
vt 0.112127 -0.06015538
vt 0.1140432 -0.06286542
vt 0.1171288 -0.01060822
vt 0.1152126 -0.00789819
vt -0.1563199 -0.0003805918
vt -0.1386518 0.04854782
vt -0.1411121 0.04683115
vt -0.05561586 -0.06114703
vt -0.05643358 -0.06436376
vt -0.05550662 -0.06538828
vt -0.05344217 -0.06321307
vt -0.0144256 -0.05494593
vt 0.008149771 -0.007978903
vt 0.007015445 -0.007190123
vt -0.1155199 -0.01416724
vt -0.1108066 -0.06606458
vt -0.1089285 -0.06332801
vt 0.09649441 0.09325854
vt 0.0709831 0.05998836
vt 0.072376 0.05733132
vt 0.09788729 0.0906015
vt -0.06114604 0.09948751
vt -0.05207244 0.07326031
vt -0.03625647 0.06544951
vt 0.004273606 0.1455906
vt -0.02790202 0.09572756
vt -0.01410964 0.1079105
vt 0.1357998 0.1129013
vt 0.1296987 0.07142226
vt 0.1326435 0.07084922
vt 0.1566236 0.04945173
vt 0.1568443 0.04645986
vt 0.157047 0.04833578
vt -0.1154429 0.0005022628
vt -0.1178876 -0.002965209
vt -0.1149315 -0.002453832
vt -0.003735928 0.1483608
vt -0.01702615 0.1360177
vt -0.0346776 0.09772278
vt -0.04162359 0.06933502
vt -0.0654728 0.1052094
vt -0.06631488 0.1035209
vt -0.08950676 0.04427522
vt -0.07438297 0.0343668
vt -0.08886777 0.04528335
vt 0.1049284 -0.01941634
vt 0.09185686 -0.03236971
vt 0.106907 -0.02316934
vt -0.02157561 0.112226
vt -0.03651359 0.1224124
vt -0.01447727 0.08539676
o group853307337
g mesh853307337
usemtl mat17
f 3/3/1 2/2/1 1/1/1
f 6/6/2 5/5/2 4/4/2
f 1/9/3 6/8/3 7/7/3
f 5/12/4 2/11/4 3/10/4
f 4/15/5 3/14/5 7/13/5
f 2/18/6 6/17/6 1/16/6
f 5/21/7 8/20/7 4/19/7
f 4/24/8 8/23/8 3/22/8
f 2/27/9 5/26/9 6/25/9
f 6/30/10 4/29/10 7/28/10
f 3/33/11 8/32/11 5/31/11
f 1/36/12 7/35/12 3/34/12
o group1840255837
g mesh1840255837
usemtl mat17
f 11/39/13 10/38/13 9/37/13
f 14/42/14 13/41/14 12/40/14
f 10/45/15 14/44/15 9/43/15
f 13/48/16 11/47/16 15/46/16
f 12/52/17 16/51/17 15/50/17 9/49/17
f 11/56/18 13/55/18 14/54/18 10/53/18
f 9/59/19 15/58/19 11/57/19
f 13/62/20 16/61/20 12/60/20
f 14/65/21 12/64/21 9/63/21
f 15/68/22 16/67/22 13/66/22
o group17035221
g mesh17035221
usemtl mat17
f 19/71/23 18/70/23 17/69/23
f 18/75/24 21/74/24 20/73/24 17/72/24
f 22/78/25 19/77/25 17/76/25
f 19/82/26 22/81/26 21/80/26 18/79/26
f 21/85/27 22/84/27 20/83/27
f 17/88/28 20/87/28 22/86/28
o group956244586
g mesh956244586
usemtl mat17
f 26/92/29 25/91/29 24/90/29 23/89/29
f 29/95/30 28/94/30 27/93/30
f 24/98/31 29/97/31 23/96/31
f 28/101/32 25/100/32 26/99/32
f 30/104/33 26/103/33 23/102/33
f 25/107/34 28/106/34 24/105/34
f 29/110/35 27/109/35 23/108/35
f 26/113/36 30/112/36 28/111/36
f 23/116/37 27/115/37 30/114/37
f 28/119/38 29/118/38 24/117/38
f 28/122/39 30/121/39 27/120/39
